<svg xmlns="http://www.w3.org/2000/svg" width="302" height="237" viewBox="0 0 302 237">
<g>
<path d="M 0.00 0.00 L 302.00 0.00 L 302.00 237.00 L 0.00 237.00 ZM 95.50 217.84 C99.90,218.33 104.18,218.79 105.00,218.85 C108.91,219.15 125.67,216.82 131.74,215.14 C146.71,210.99 160.78,203.12 171.25,193.03 L 178.03 186.50 L 171.13 179.00 L 164.22 171.50 L 158.86 176.55 C144.12,190.43 127.32,196.99 106.50,196.99 C67.22,196.99 35.46,169.84 28.55,130.35 C26.60,119.17 26.60,112.80 28.58,101.53 C33.56,73.05 52.39,49.44 77.40,40.31 C94.48,34.07 118.78,34.58 133.32,41.46 C145.93,47.43 151.63,54.07 173.00,87.66 C179.58,98.00 186.21,108.31 217.59,157.00 C227.72,172.71 236.19,185.75 247.63,203.25 L 257.93 219.00 L 282.00 219.00 L 282.00 14.00 L 261.01 14.00 L 260.50 185.33 L 255.16 176.92 C252.22,172.29 247.27,164.56 244.16,159.75 C241.05,154.93 233.55,143.26 227.50,133.81 C221.45,124.36 213.35,111.77 209.50,105.83 C205.65,99.89 198.45,88.70 193.50,80.96 C174.43,51.16 168.97,43.30 163.33,37.61 C153.14,27.32 140.52,20.27 125.50,16.47 C115.14,13.85 93.39,14.05 81.70,16.87 C49.81,24.55 23.22,49.38 12.10,81.86 C8.07,93.64 6.81,101.88 6.79,116.50 C6.77,135.38 9.70,147.73 18.14,164.42 C24.26,176.50 38.69,192.87 50.19,200.79 C62.51,209.26 80.96,216.21 95.50,217.84 ZM 121.08 118.25 C120.96,179.28 120.98,180.00 122.95,180.00 C125.43,180.00 135.10,175.77 139.05,172.97 L 142.00 170.86 L 142.00 67.20 L 136.57 62.24 C133.59,59.51 129.21,56.32 126.83,55.15 C122.81,53.16 122.48,53.13 121.86,54.76 C121.49,55.72 121.14,84.29 121.08,118.25 Z" fill="rgb(34,38,39)"/>
<path d="M 95.50 217.84 C80.96,216.21 62.51,209.26 50.19,200.79 C38.69,192.87 24.26,176.50 18.14,164.42 C9.70,147.73 6.77,135.38 6.79,116.50 C6.81,101.88 8.07,93.64 12.10,81.86 C23.22,49.38 49.81,24.55 81.70,16.87 C93.39,14.05 115.14,13.85 125.50,16.47 C140.52,20.27 153.14,27.32 163.33,37.61 C168.97,43.30 174.43,51.16 193.50,80.96 C198.45,88.70 205.65,99.89 209.50,105.83 C213.35,111.77 221.45,124.36 227.50,133.81 C233.55,143.26 241.05,154.93 244.16,159.75 C247.27,164.56 252.22,172.29 255.16,176.92 L 260.50 185.33 L 260.76 99.67 L 261.01 14.00 L 271.51 14.00 L 282.00 14.00 L 282.00 116.50 L 282.00 219.00 L 269.97 219.00 L 257.93 219.00 L 247.63 203.25 C236.19,185.75 227.72,172.71 217.59,157.00 C186.21,108.31 179.58,98.00 173.00,87.66 C151.63,54.07 145.93,47.43 133.32,41.46 C118.78,34.58 94.48,34.07 77.40,40.31 C52.39,49.44 33.56,73.05 28.58,101.53 C26.60,112.80 26.60,119.17 28.55,130.35 C35.46,169.84 67.22,196.99 106.50,196.99 C127.32,196.99 144.12,190.43 158.86,176.55 L 164.22 171.50 L 171.13 179.00 L 178.03 186.50 L 171.25 193.03 C160.78,203.12 146.71,210.99 131.74,215.14 C125.67,216.82 108.91,219.15 105.00,218.85 C104.18,218.79 99.90,218.33 95.50,217.84 ZM 121.08 118.25 C121.14,84.29 121.49,55.72 121.86,54.76 C122.48,53.13 122.81,53.16 126.83,55.15 C129.21,56.32 133.59,59.51 136.57,62.24 L 142.00 67.20 L 142.00 119.03 L 142.00 170.86 L 139.05 172.97 C135.10,175.77 125.43,180.00 122.95,180.00 C120.98,180.00 120.96,179.28 121.08,118.25 Z" fill="rgb(228,224,213)"/>
</g>
</svg>